<mxfile host="app.diagrams.net" agent="Mozilla/5.0 (Windows NT 10.0; Win64; x64) AppleWebKit/537.36 (KHTML, like Gecko) Chrome/132.0.0.0 Safari/537.36" version="26.0.10">
  <diagram name="Página-1" id="BHYSofAsxXnoc81xlbX3">
    <mxGraphModel dx="1050" dy="565" grid="1" gridSize="10" guides="1" tooltips="1" connect="1" arrows="1" fold="1" page="1" pageScale="1" pageWidth="827" pageHeight="1169" math="0" shadow="0">
      <root>
        <mxCell id="0" />
        <mxCell id="1" parent="0" />
        <mxCell id="wTBAmhqY81un2gO2Y23Z-3" style="edgeStyle=orthogonalEdgeStyle;rounded=0;orthogonalLoop=1;jettySize=auto;html=1;exitX=0.5;exitY=1;exitDx=0;exitDy=0;" edge="1" parent="1" source="wTBAmhqY81un2gO2Y23Z-1">
          <mxGeometry relative="1" as="geometry">
            <mxPoint x="430" y="120" as="targetPoint" />
          </mxGeometry>
        </mxCell>
        <mxCell id="wTBAmhqY81un2gO2Y23Z-1" value="início" style="rounded=1;whiteSpace=wrap;html=1;" vertex="1" parent="1">
          <mxGeometry x="370" y="10" width="120" height="60" as="geometry" />
        </mxCell>
        <mxCell id="wTBAmhqY81un2gO2Y23Z-5" style="edgeStyle=orthogonalEdgeStyle;rounded=0;orthogonalLoop=1;jettySize=auto;html=1;exitX=0.5;exitY=1;exitDx=0;exitDy=0;" edge="1" parent="1" source="wTBAmhqY81un2gO2Y23Z-2">
          <mxGeometry relative="1" as="geometry">
            <mxPoint x="430" y="250" as="targetPoint" />
          </mxGeometry>
        </mxCell>
        <mxCell id="wTBAmhqY81un2gO2Y23Z-2" value="n1,n2,n3" style="html=1;strokeWidth=2;shape=manualInput;whiteSpace=wrap;rounded=1;size=26;arcSize=11;" vertex="1" parent="1">
          <mxGeometry x="375" y="110" width="110" height="70" as="geometry" />
        </mxCell>
        <mxCell id="wTBAmhqY81un2gO2Y23Z-7" style="edgeStyle=orthogonalEdgeStyle;rounded=0;orthogonalLoop=1;jettySize=auto;html=1;exitX=1;exitY=0.5;exitDx=0;exitDy=0;entryX=0.5;entryY=0;entryDx=0;entryDy=0;" edge="1" parent="1" source="wTBAmhqY81un2gO2Y23Z-4" target="wTBAmhqY81un2gO2Y23Z-6">
          <mxGeometry relative="1" as="geometry">
            <mxPoint x="710" y="330" as="targetPoint" />
          </mxGeometry>
        </mxCell>
        <mxCell id="wTBAmhqY81un2gO2Y23Z-11" style="edgeStyle=orthogonalEdgeStyle;rounded=0;orthogonalLoop=1;jettySize=auto;html=1;exitX=0;exitY=0.5;exitDx=0;exitDy=0;entryX=1;entryY=0.5;entryDx=0;entryDy=0;" edge="1" parent="1" source="wTBAmhqY81un2gO2Y23Z-4" target="wTBAmhqY81un2gO2Y23Z-10">
          <mxGeometry relative="1" as="geometry" />
        </mxCell>
        <mxCell id="wTBAmhqY81un2gO2Y23Z-4" value="n1=n2 e n2=n3 e&amp;nbsp; n3=n1" style="rhombus;whiteSpace=wrap;html=1;" vertex="1" parent="1">
          <mxGeometry x="355" y="260" width="150" height="140" as="geometry" />
        </mxCell>
        <mxCell id="wTBAmhqY81un2gO2Y23Z-15" style="edgeStyle=orthogonalEdgeStyle;rounded=0;orthogonalLoop=1;jettySize=auto;html=1;exitX=1;exitY=0.5;exitDx=0;exitDy=0;entryX=0.5;entryY=0;entryDx=0;entryDy=0;" edge="1" parent="1" source="wTBAmhqY81un2gO2Y23Z-6" target="wTBAmhqY81un2gO2Y23Z-19">
          <mxGeometry relative="1" as="geometry">
            <mxPoint x="680" y="540" as="targetPoint" />
          </mxGeometry>
        </mxCell>
        <mxCell id="wTBAmhqY81un2gO2Y23Z-16" style="edgeStyle=orthogonalEdgeStyle;rounded=0;orthogonalLoop=1;jettySize=auto;html=1;exitX=0;exitY=0.5;exitDx=0;exitDy=0;" edge="1" parent="1" source="wTBAmhqY81un2gO2Y23Z-6">
          <mxGeometry relative="1" as="geometry">
            <mxPoint x="320" y="540" as="targetPoint" />
          </mxGeometry>
        </mxCell>
        <mxCell id="wTBAmhqY81un2gO2Y23Z-6" value="n1&amp;gt;n2&lt;div&gt;E&lt;/div&gt;&lt;div&gt;n1&amp;gt;n3&lt;/div&gt;" style="rhombus;whiteSpace=wrap;html=1;" vertex="1" parent="1">
          <mxGeometry x="480" y="480" width="120" height="120" as="geometry" />
        </mxCell>
        <mxCell id="wTBAmhqY81un2gO2Y23Z-9" value="não" style="text;html=1;align=center;verticalAlign=middle;resizable=0;points=[];autosize=1;strokeColor=none;fillColor=none;" vertex="1" parent="1">
          <mxGeometry x="505" y="298" width="40" height="30" as="geometry" />
        </mxCell>
        <mxCell id="wTBAmhqY81un2gO2Y23Z-10" value="os números não podem ser iguais, volte" style="shape=document;whiteSpace=wrap;html=1;boundedLbl=1;" vertex="1" parent="1">
          <mxGeometry x="110" y="290" width="120" height="80" as="geometry" />
        </mxCell>
        <mxCell id="wTBAmhqY81un2gO2Y23Z-12" value="sim" style="text;html=1;align=center;verticalAlign=middle;resizable=0;points=[];autosize=1;strokeColor=none;fillColor=none;" vertex="1" parent="1">
          <mxGeometry x="270" y="298" width="40" height="30" as="geometry" />
        </mxCell>
        <mxCell id="wTBAmhqY81un2gO2Y23Z-36" style="edgeStyle=orthogonalEdgeStyle;rounded=0;orthogonalLoop=1;jettySize=auto;html=1;exitX=0;exitY=0.5;exitDx=0;exitDy=0;entryX=0.25;entryY=0;entryDx=0;entryDy=0;" edge="1" parent="1" source="wTBAmhqY81un2gO2Y23Z-13" target="wTBAmhqY81un2gO2Y23Z-39">
          <mxGeometry relative="1" as="geometry">
            <mxPoint x="80" y="660" as="targetPoint" />
            <Array as="points">
              <mxPoint x="70" y="550" />
              <mxPoint x="70" y="660" />
              <mxPoint x="90" y="660" />
            </Array>
          </mxGeometry>
        </mxCell>
        <mxCell id="wTBAmhqY81un2gO2Y23Z-13" value="&quot;é o maior&quot;" style="shape=document;whiteSpace=wrap;html=1;boundedLbl=1;" vertex="1" parent="1">
          <mxGeometry x="220" y="515" width="100" height="70" as="geometry" />
        </mxCell>
        <mxCell id="wTBAmhqY81un2gO2Y23Z-17" value="sim" style="text;html=1;align=center;verticalAlign=middle;resizable=0;points=[];autosize=1;strokeColor=none;fillColor=none;" vertex="1" parent="1">
          <mxGeometry x="380" y="508" width="40" height="30" as="geometry" />
        </mxCell>
        <mxCell id="wTBAmhqY81un2gO2Y23Z-18" value="não" style="text;html=1;align=center;verticalAlign=middle;resizable=0;points=[];autosize=1;strokeColor=none;fillColor=none;" vertex="1" parent="1">
          <mxGeometry x="610" y="508" width="40" height="30" as="geometry" />
        </mxCell>
        <mxCell id="wTBAmhqY81un2gO2Y23Z-22" style="edgeStyle=orthogonalEdgeStyle;rounded=0;orthogonalLoop=1;jettySize=auto;html=1;exitX=0;exitY=0.5;exitDx=0;exitDy=0;" edge="1" parent="1" source="wTBAmhqY81un2gO2Y23Z-19">
          <mxGeometry relative="1" as="geometry">
            <mxPoint x="490" y="690" as="targetPoint" />
          </mxGeometry>
        </mxCell>
        <mxCell id="wTBAmhqY81un2gO2Y23Z-30" style="edgeStyle=orthogonalEdgeStyle;rounded=0;orthogonalLoop=1;jettySize=auto;html=1;exitX=1;exitY=0.5;exitDx=0;exitDy=0;" edge="1" parent="1" source="wTBAmhqY81un2gO2Y23Z-19">
          <mxGeometry relative="1" as="geometry">
            <mxPoint x="780" y="870" as="targetPoint" />
            <Array as="points">
              <mxPoint x="840" y="690" />
              <mxPoint x="840" y="820" />
              <mxPoint x="781" y="820" />
            </Array>
          </mxGeometry>
        </mxCell>
        <mxCell id="wTBAmhqY81un2gO2Y23Z-19" value="n2&amp;gt;n1&lt;div&gt;E&lt;/div&gt;&lt;div&gt;n2&amp;gt;n3&lt;/div&gt;" style="rhombus;whiteSpace=wrap;html=1;" vertex="1" parent="1">
          <mxGeometry x="620" y="610" width="150" height="160" as="geometry" />
        </mxCell>
        <mxCell id="wTBAmhqY81un2gO2Y23Z-37" style="edgeStyle=orthogonalEdgeStyle;rounded=0;orthogonalLoop=1;jettySize=auto;html=1;exitX=0;exitY=0.5;exitDx=0;exitDy=0;" edge="1" parent="1" source="wTBAmhqY81un2gO2Y23Z-21" target="wTBAmhqY81un2gO2Y23Z-39">
          <mxGeometry relative="1" as="geometry">
            <mxPoint x="170" y="900" as="targetPoint" />
          </mxGeometry>
        </mxCell>
        <mxCell id="wTBAmhqY81un2gO2Y23Z-21" value="&quot;é o maior&quot;" style="shape=document;whiteSpace=wrap;html=1;boundedLbl=1;" vertex="1" parent="1">
          <mxGeometry x="365" y="660" width="120" height="80" as="geometry" />
        </mxCell>
        <mxCell id="wTBAmhqY81un2gO2Y23Z-23" value="sim" style="text;html=1;align=center;verticalAlign=middle;resizable=0;points=[];autosize=1;strokeColor=none;fillColor=none;" vertex="1" parent="1">
          <mxGeometry x="550" y="650" width="40" height="30" as="geometry" />
        </mxCell>
        <mxCell id="wTBAmhqY81un2gO2Y23Z-32" style="edgeStyle=orthogonalEdgeStyle;rounded=0;orthogonalLoop=1;jettySize=auto;html=1;exitX=0;exitY=0.5;exitDx=0;exitDy=0;" edge="1" parent="1" source="wTBAmhqY81un2gO2Y23Z-31">
          <mxGeometry relative="1" as="geometry">
            <mxPoint x="400" y="940" as="targetPoint" />
          </mxGeometry>
        </mxCell>
        <mxCell id="wTBAmhqY81un2gO2Y23Z-31" value="n3&amp;gt;n1&lt;div&gt;E&lt;/div&gt;&lt;div&gt;n3&amp;gt;n2&lt;/div&gt;" style="rhombus;whiteSpace=wrap;html=1;" vertex="1" parent="1">
          <mxGeometry x="710" y="870" width="140" height="140" as="geometry" />
        </mxCell>
        <mxCell id="wTBAmhqY81un2gO2Y23Z-33" value="sim" style="text;html=1;align=center;verticalAlign=middle;resizable=0;points=[];autosize=1;strokeColor=none;fillColor=none;" vertex="1" parent="1">
          <mxGeometry x="550" y="908" width="40" height="30" as="geometry" />
        </mxCell>
        <mxCell id="wTBAmhqY81un2gO2Y23Z-38" style="edgeStyle=orthogonalEdgeStyle;rounded=0;orthogonalLoop=1;jettySize=auto;html=1;exitX=0;exitY=0.5;exitDx=0;exitDy=0;entryX=1.01;entryY=0.63;entryDx=0;entryDy=0;entryPerimeter=0;" edge="1" parent="1" source="wTBAmhqY81un2gO2Y23Z-34" target="wTBAmhqY81un2gO2Y23Z-39">
          <mxGeometry relative="1" as="geometry">
            <mxPoint x="170" y="940" as="targetPoint" />
          </mxGeometry>
        </mxCell>
        <mxCell id="wTBAmhqY81un2gO2Y23Z-34" value="sim é o maior" style="shape=document;whiteSpace=wrap;html=1;boundedLbl=1;" vertex="1" parent="1">
          <mxGeometry x="280" y="900" width="120" height="80" as="geometry" />
        </mxCell>
        <mxCell id="wTBAmhqY81un2gO2Y23Z-39" value="fim" style="rounded=1;whiteSpace=wrap;html=1;" vertex="1" parent="1">
          <mxGeometry x="60" y="900" width="120" height="60" as="geometry" />
        </mxCell>
        <mxCell id="wTBAmhqY81un2gO2Y23Z-40" value="não" style="text;html=1;align=center;verticalAlign=middle;resizable=0;points=[];autosize=1;strokeColor=none;fillColor=none;" vertex="1" parent="1">
          <mxGeometry x="790" y="668" width="40" height="30" as="geometry" />
        </mxCell>
      </root>
    </mxGraphModel>
  </diagram>
</mxfile>
